HIERARCHY
ROOT Hips
{
	OFFSET 0.000000 0.000000 0.000000
	CHANNELS 6 Xposition Yposition Zposition Zrotation Yrotation Xrotation 
	JOINT LHipJoint
	{
		OFFSET 0.000000 0.000000 0.000000
		CHANNELS 3 Zrotation Yrotation Xrotation
		JOINT LeftUpLeg
		{
			OFFSET 1.363060 -1.794630 0.839290
			CHANNELS 3 Zrotation Yrotation Xrotation
			JOINT LeftLeg
			{
				OFFSET 2.448110 -6.726130 0.000000
				CHANNELS 3 Zrotation Yrotation Xrotation
				JOINT LeftFoot
				{
					OFFSET 2.562200 -7.039590 0.000000
					CHANNELS 3 Zrotation Yrotation Xrotation
					JOINT LeftToeBase
					{
						OFFSET 0.157640 -0.433110 2.322550
						CHANNELS 3 Zrotation Yrotation Xrotation
						End Site
						{
							OFFSET 0.000000 0.000000 0.000000
						}
					}
				}
			}
		}
	}
	JOINT RHipJoint
	{
		OFFSET 0.000000 0.000000 0.000000
		CHANNELS 3 Zrotation Yrotation Xrotation
		JOINT RightUpLeg
		{
			OFFSET -1.305520 -1.794630 0.839290
			CHANNELS 3 Zrotation Yrotation Xrotation
			JOINT RightLeg
			{
				OFFSET -2.542530 -6.985550 0.000000
				CHANNELS 3 Zrotation Yrotation Xrotation
				JOINT RightFoot
				{
					OFFSET -2.568260 -7.056230 0.000000
					CHANNELS 3 Zrotation Yrotation Xrotation
					JOINT RightToeBase
					{
						OFFSET -0.164730 -0.452590 2.363150
						CHANNELS 3 Zrotation Yrotation Xrotation
						End Site
						{
							OFFSET 0.000000 0.000000 0.000000
						}
					}
				}
			}
		}
	}
	JOINT LowerBack
	{
		OFFSET 0.000000 0.000000 0.000000
		CHANNELS 3 Zrotation Yrotation Xrotation
		JOINT Spine
		{
			OFFSET 0.028270 2.035590 -0.193380
			CHANNELS 3 Zrotation Yrotation Xrotation
			JOINT Spine1
			{
				OFFSET 0.056720 2.048850 -0.042750
				CHANNELS 3 Zrotation Yrotation Xrotation
				JOINT Neck
				{
					OFFSET 0.000000 0.000000 0.000000
					CHANNELS 3 Zrotation Yrotation Xrotation
					JOINT Neck1
					{
						OFFSET -0.054170 1.746240 0.172020
						CHANNELS 3 Zrotation Yrotation Xrotation
						JOINT Head
						{
							OFFSET 0.104070 1.761360 -0.123970
							CHANNELS 3 Zrotation Yrotation Xrotation
							End Site
							{
								OFFSET 0.000000 0.000000 0.000000
							}
						}
					}
				}
				JOINT LeftShoulder
				{
					OFFSET 0.000000 0.000000 0.000000
					CHANNELS 3 Zrotation Yrotation Xrotation
					JOINT LeftArm
					{
						OFFSET 3.362410 1.200890 -0.311210
						CHANNELS 3 Zrotation Yrotation Xrotation
						JOINT LeftForeArm
						{
							OFFSET 4.983000 -0.000000 -0.000000
							CHANNELS 3 Zrotation Yrotation Xrotation
							JOINT LeftHand
							{
								OFFSET 3.483560 -0.000000 -0.000000
								CHANNELS 3 Zrotation Yrotation Xrotation
								JOINT LeftFingerBase
								{
									OFFSET 0.000000 0.000000 0.000000
									CHANNELS 3 Zrotation Yrotation Xrotation
									JOINT LeftHandIndex1
									{
										OFFSET 0.715260 -0.000000 -0.000000
										CHANNELS 3 Zrotation Yrotation Xrotation
										End Site
										{
											OFFSET 0.000000 0.000000 0.000000
										}
									}
								}
								JOINT LThumb
								{
									OFFSET 0.000000 0.000000 0.000000
									CHANNELS 3 Zrotation Yrotation Xrotation
									End Site
									{
										OFFSET 0.000000 0.000000 0.000000
									}
								}
							}
						}
					}
				}
				JOINT RightShoulder
				{
					OFFSET 0.000000 0.000000 0.000000
					CHANNELS 3 Zrotation Yrotation Xrotation
					JOINT RightArm
					{
						OFFSET -3.136600 1.374050 -0.404650
						CHANNELS 3 Zrotation Yrotation Xrotation
						JOINT RightForeArm
						{
							OFFSET -5.241900 -0.000000 -0.000000
							CHANNELS 3 Zrotation Yrotation Xrotation
							JOINT RightHand
							{
								OFFSET -3.444170 -0.000000 -0.000000
								CHANNELS 3 Zrotation Yrotation Xrotation
								JOINT RightFingerBase
								{
									OFFSET 0.000000 0.000000 0.000000
									CHANNELS 3 Zrotation Yrotation Xrotation
									JOINT RightHandIndex1
									{
										OFFSET -0.622530 -0.000000 -0.000000
										CHANNELS 3 Zrotation Yrotation Xrotation
										End Site
										{
											OFFSET 0.000000 0.000000 0.000000
										}
									}
								}
								JOINT RThumb
								{
									OFFSET 0.000000 0.000000 0.000000
									CHANNELS 3 Zrotation Yrotation Xrotation
									End Site
									{
										OFFSET 0.000000 0.000000 0.000000
									}
								}
							}
						}
					}
				}
			}
		}
	}
}
MOTION
Frames: 5
Frame Time: 0.008333
-0.333954 17.696915 3.592119 -144.760344 -50.854964 173.712323 16.860903 -0.372359 -6.100897 8.768531 -16.612935 -32.901455 -5.894608 11.439378 11.144727 3.932277 -3.401757 -1.976341 0.023400 -0.988300 -2.716700 -21.163294 -2.887609 -3.959447 46.397328 18.275173 28.385771 15.078304 4.856016 -2.558281 -4.155708 -8.694824 -39.081037 -2.126100 -9.123900 26.183700 3.560364 6.566256 16.595920 -0.171019 9.586942 -5.772850 -5.912210 3.470980 -18.866230 5.706029 -0.612820 -23.269138 6.079336 -4.046379 13.159322 0.025600 -0.873000 13.584900 6.526156 -7.170723 0.710153 -73.858988 29.923696 1.797201 17.523600 -28.464817 -6.707818 -0.941599 1.336054 2.302195 34.126372 23.901013 14.798200 -7.125000 0.000000 0.000000 6.994700 56.174600 1.923700 -8.400401 7.782318 0.755540 61.131205 -5.083910 33.101982 -51.752450 53.017793 -24.221829 1.286848 -1.451967 -11.543672 -15.472384 -13.024003 3.290100 7.125000 0.000000 0.000000 9.492600 -41.474300 0.833900 
-0.647370 17.817374 3.583015 -144.044447 -51.089351 173.451689 16.664952 -0.332414 -5.732538 8.899833 -17.881583 -32.385964 -6.077823 11.402741 10.694828 3.302924 -2.094799 -3.705808 0.022400 -0.965400 -2.653600 -20.909018 -3.169037 -4.459787 41.293078 10.672907 23.566239 14.567141 2.493334 2.236216 -1.251842 -11.617172 -26.587081 -2.528900 -9.890300 28.622200 3.302394 6.548159 16.532783 -0.094608 9.463494 -5.715566 -5.379458 3.549109 -18.644626 5.317278 -0.751933 -23.297582 6.165942 -4.092984 13.167782 0.129800 -0.922000 13.595800 6.604976 -7.157288 0.701909 -74.900730 29.703294 2.449953 17.714731 -28.774998 -6.746792 -0.929833 1.371231 2.037171 33.462648 23.681911 14.300800 -7.125000 0.000000 0.000000 6.247600 55.742300 1.651500 -8.387440 7.829234 0.818272 60.645624 -5.700021 33.580657 -49.699336 52.234711 -22.777006 1.277736 -1.449583 -11.341542 -15.772962 -13.395823 3.463100 7.125000 0.000000 0.000000 9.306900 -41.885600 0.722000 
-0.957343 17.928729 3.571690 -143.481797 -51.500306 173.044692 16.426751 -0.351359 -5.308751 8.747098 -19.281735 -31.599849 -6.624059 11.068775 9.914899 -0.923618 6.483061 -7.041585 0.637400 -5.107800 -14.216200 -20.521704 -3.338753 -4.777798 37.395302 4.819008 20.196393 13.392538 -0.145667 8.111694 -0.212096 -10.826956 -18.387753 -3.568000 -11.562300 34.200500 3.167759 6.497675 16.565328 -0.028124 9.339677 -5.644196 -5.012108 3.594678 -18.510709 5.213881 -0.877949 -23.053618 6.176417 -4.194692 13.070418 0.117700 -0.981900 13.468800 6.687614 -7.151518 0.696686 -75.769183 29.294052 2.758474 17.570008 -28.734466 -6.657698 -0.909739 1.405942 2.256536 32.999865 23.533565 13.959600 -7.125000 0.000000 0.000000 5.731900 55.443800 1.472900 -8.369065 7.888690 0.887564 60.389477 -6.763260 33.669073 -47.770102 51.442920 -21.477302 1.267482 -1.458501 -9.875655 -15.938012 -14.058923 3.706600 7.125000 0.000000 0.000000 9.274700 -42.596400 0.555300 
-1.266984 18.029426 3.564252 -142.910806 -52.125620 172.389353 16.131647 -0.384390 -4.869996 8.488645 -21.016737 -30.478379 -6.661005 10.782801 9.065112 1.926261 0.582782 -5.739390 0.102100 -2.060900 -5.674000 -20.057945 -3.440207 -4.962647 34.241086 0.360609 17.481700 11.704014 -3.017083 15.111695 0.356092 -11.326480 -15.106828 -2.401300 -9.656200 27.870300 3.310513 6.399839 16.639284 0.027233 9.219818 -5.554521 -4.814420 3.598807 -18.329780 5.115392 -0.950247 -22.785874 6.193878 -4.227966 13.010722 0.129900 -1.012400 13.360900 6.766762 -7.155099 0.690479 -76.491065 28.754969 2.795364 17.288774 -28.528010 -6.516134 -0.873160 1.444773 2.996903 32.676838 23.218313 13.595600 -7.125000 0.000000 0.000000 5.394500 54.991800 1.326500 -8.359223 7.936459 0.964085 60.279617 -8.110888 33.666003 -45.496328 50.425481 -19.938502 1.187959 -1.520071 -9.374343 -16.774505 -12.882927 3.504500 7.125000 0.000000 0.000000 8.356000 -41.418800 0.743900 
-1.576291 18.125794 3.561032 -142.691335 -53.035264 171.880852 15.825506 -0.487222 -4.347863 8.059984 -23.303067 -29.271031 -6.878814 10.401351 7.978501 3.283538 -2.596887 -5.640344 0.041000 -1.306300 -3.591900 -19.590623 -3.487880 -5.112924 31.508490 -2.835619 15.128753 9.393105 -5.922529 23.003189 1.002818 -12.545661 -12.602456 -1.807000 -8.452000 24.095500 3.373695 6.223330 16.700464 0.084589 8.977171 -5.462965 -4.577457 3.557171 -18.177289 4.981124 -1.090864 -22.539140 6.121563 -4.348935 12.970720 0.077200 -1.090700 13.272900 6.843564 -7.166791 0.688981 -77.114499 28.392306 2.919414 17.138222 -28.456090 -6.442062 -0.850309 1.471185 3.612407 32.411741 23.233502 13.464100 -7.125000 0.000000 0.000000 5.093700 54.936200 1.245400 -8.342686 7.990335 1.040662 60.281189 -9.625555 33.398192 -43.448725 49.430864 -18.587021 1.187243 -1.501521 -9.535160 -16.487431 -13.320167 3.583300 7.125000 0.000000 0.000000 8.699600 -41.861300 0.679300 
